<svg width="14" height="13" viewBox="0 0 14 13" fill="none" xmlns="http://www.w3.org/2000/svg">
<path d="M2.11882 0.295532C1.75267 0.295532 1.40153 0.440981 1.14263 0.699881C0.88373 0.958782 0.738281 1.30993 0.738281 1.67607V11.3398C0.738281 11.7059 0.88373 12.0571 1.14263 12.316C1.40153 12.5749 1.75267 12.7203 2.11882 12.7203H11.7826C12.1487 12.7203 12.4998 12.5749 12.7587 12.316C13.0176 12.0571 13.1631 11.7059 13.1631 11.3398V1.67607C13.1631 1.30993 13.0176 0.958782 12.7587 0.699881C12.4998 0.440981 12.1487 0.295532 11.7826 0.295532H2.11882ZM10.402 7.1982H3.49935V5.81767H10.402V7.1982Z" fill="#393234"/>
</svg>
