<svg width="13" height="13" viewBox="0 0 13 13" fill="none" xmlns="http://www.w3.org/2000/svg">
<path d="M1.56828 12.7203H11.232C11.5982 12.7203 11.9493 12.5749 12.2082 12.316C12.4671 12.0571 12.6126 11.7059 12.6126 11.3398V1.67607C12.6126 1.30993 12.4671 0.958782 12.2082 0.699881C11.9493 0.440981 11.5982 0.295532 11.232 0.295532H1.56828C1.20214 0.295532 0.850994 0.440981 0.592093 0.699881C0.333193 0.958782 0.187744 1.30993 0.187744 1.67607V11.3398C0.187744 11.7059 0.333193 12.0571 0.592093 12.316C0.850994 12.5749 1.20214 12.7203 1.56828 12.7203ZM2.94881 5.81767H5.70988V3.0566H7.09041V5.81767H9.85148V7.1982H7.09041V9.95927H5.70988V7.1982H2.94881V5.81767Z" fill="#393234"/>
</svg>
