<svg width="20" height="17" viewBox="0 0 20 17" fill="none" xmlns="http://www.w3.org/2000/svg">
<path d="M5.97204 0.958832C6.04096 0.768941 6.16668 0.604876 6.3321 0.488932C6.49753 0.372989 6.69464 0.310791 6.89665 0.310791C7.09866 0.310791 7.29578 0.372989 7.4612 0.488932C7.62663 0.604876 7.75234 0.768941 7.82126 0.958832L12.2043 13.0142L14.5126 7.4744C14.5872 7.29499 14.7133 7.1417 14.8749 7.03386C15.0365 6.92603 15.2265 6.86848 15.4208 6.86848C15.6151 6.86848 15.8051 6.92603 15.9667 7.03386C16.1283 7.1417 16.2544 7.29499 16.329 7.4744L19.6078 15.3434C19.7 15.5826 19.6953 15.8483 19.5946 16.084C19.4939 16.3197 19.3052 16.5067 19.0686 16.6054C18.832 16.704 18.5663 16.7064 18.328 16.612C18.0897 16.5177 17.8976 16.334 17.7927 16.1002L17.0871 14.4096H13.7532L13.0502 16.0962C13.0008 16.2174 12.9277 16.3275 12.8351 16.4199C12.7424 16.5123 12.6323 16.5852 12.511 16.6344C12.3897 16.6835 12.2598 16.7079 12.129 16.706C11.9982 16.7041 11.869 16.6761 11.7492 16.6235C11.626 16.5702 11.515 16.4922 11.4232 16.3943C11.3314 16.2964 11.2607 16.1807 11.2154 16.0543L9.66524 11.7866H4.12806L2.57524 16.0569C2.53115 16.1783 2.46357 16.2899 2.37637 16.3852C2.28917 16.4805 2.18405 16.5577 2.06701 16.6124C1.94998 16.667 1.82332 16.6981 1.69427 16.7039C1.56522 16.7096 1.4363 16.6899 1.31488 16.6458C1.19345 16.6017 1.08191 16.5341 0.986601 16.4469C0.891294 16.3597 0.814096 16.2546 0.759415 16.1375C0.704735 16.0205 0.673639 15.8939 0.667908 15.7648C0.662176 15.6357 0.681919 15.5068 0.726009 15.3854L5.97204 0.958832ZM6.89665 4.17202L4.84283 9.81937H8.94916L6.89665 4.17334V4.17202ZM14.5742 12.4424H16.2687L15.4214 10.4096L14.5742 12.4424Z" fill="#393234"/>
</svg>
